<?xml version="1.0" standalone="no"?>
<!DOCTYPE svg PUBLIC "-//W3C//DTD SVG 20010904//EN"
 "http://www.w3.org/TR/2001/REC-SVG-20010904/DTD/svg10.dtd">
<svg version="1.0" xmlns="http://www.w3.org/2000/svg"
 width="256.000000pt" height="256.000000pt" viewBox="0 0 256.000000 256.000000"
 preserveAspectRatio="xMidYMid meet">
<metadata>
Created by potrace 1.11, written by Peter Selinger 2001-2013
</metadata>
<g transform="translate(0.000000,256.000000) scale(0.100000,-0.100000)"
fill="#000000" stroke="none">
<path d="M1637 2314 c-5 -5 -29 -11 -50 -13 -5 -1 -5 -5 -2 -11 3 -5 1 -10 -4
-10 -6 0 -11 -5 -11 -11 0 -5 5 -7 11 -4 6 4 5 -2 -3 -14 -10 -17 -10 -23 1
-33 11 -11 12 -10 6 1 -5 9 -4 12 3 7 6 -4 8 -14 5 -23 -5 -12 -2 -14 8 -9 8
4 6 1 -4 -6 -42 -30 -66 -54 -69 -73 -2 -10 -11 -28 -22 -38 -15 -16 -16 -21
-5 -28 11 -6 10 -9 -4 -15 -9 -3 -14 -10 -11 -15 3 -5 -2 -12 -11 -15 -13 -6
-14 -8 -3 -15 9 -6 10 -9 1 -9 -7 0 -10 -7 -6 -17 4 -11 3 -14 -5 -9 -8 5 -10
2 -6 -8 3 -9 1 -16 -5 -16 -6 0 -10 -6 -8 -12 1 -9 -17 -13 -65 -12 -45 0 -65
-3 -61 -10 4 -6 -1 -5 -11 3 -14 12 -19 12 -25 2 -6 -10 -10 -8 -15 5 -5 12
-10 14 -18 6 -6 -6 -17 -8 -26 -5 -11 5 -13 3 -7 -7 6 -9 4 -11 -6 -5 -18 12
-49 14 -43 3 3 -4 1 -8 -5 -8 -5 0 -13 5 -16 10 -4 6 -12 7 -18 3 -19 -12 -58
-13 -51 -1 5 7 2 8 -7 2 -22 -14 -34 -11 -40 11 -3 11 -11 19 -18 17 -7 -1
-10 2 -6 8 3 5 0 10 -7 10 -9 0 -9 3 2 10 14 9 7 14 -13 11 -5 -1 -6 3 -3 8 4
5 2 12 -3 16 -6 3 -8 12 -5 20 4 8 10 12 15 9 5 -3 6 2 3 10 -4 10 -1 16 7 16
11 0 11 3 -1 10 -8 5 -10 10 -4 10 7 0 14 7 18 15 3 8 2 14 -2 14 -19 -3 -25
2 -12 11 12 8 12 10 1 10 -11 0 -11 3 -1 16 11 12 11 15 -1 12 -8 -2 -13 3
-11 11 2 9 -4 12 -18 8 -11 -3 -22 -1 -25 4 -3 5 -14 3 -25 -3 -10 -7 -16 -16
-13 -22 4 -5 -1 -7 -10 -3 -10 4 -16 2 -14 -6 1 -7 -4 -11 -12 -9 -16 3 -43
-17 -36 -28 3 -5 -4 -6 -15 -3 -15 4 -20 0 -20 -13 0 -16 -2 -17 -10 -4 -9 14
-11 13 -14 -10 0 -5 -5 -10 -10 -9 -5 0 -13 -6 -18 -15 -5 -9 -14 -13 -20 -10
-7 5 -9 0 -6 -14 4 -12 2 -20 -3 -17 -4 3 -7 -10 -5 -29 1 -20 -2 -34 -8 -33
-6 1 -10 -6 -8 -15 2 -10 -3 -18 -10 -18 -9 0 -9 -3 2 -10 9 -6 10 -10 3 -10
-6 0 -10 -8 -8 -18 2 -12 -3 -18 -16 -19 -10 -1 -19 3 -19 8 0 6 -6 7 -12 3
-7 -4 -10 -3 -5 1 4 5 -3 20 -15 34 -19 21 -20 23 -3 11 19 -14 19 -14 6 3 -7
9 -23 17 -35 18 -11 0 -15 3 -9 6 10 3 9 8 -2 20 -8 8 -12 19 -9 25 4 7 2 8
-4 4 -7 -4 -12 -2 -12 4 0 7 -7 9 -16 6 -8 -3 -12 -2 -9 4 9 14 -8 12 -24 -2
-11 -11 -12 -10 -6 2 8 13 6 13 -8 1 -9 -7 -24 -11 -32 -7 -9 3 -13 2 -10 -4
3 -6 1 -10 -6 -10 -7 0 -9 -3 -6 -7 4 -3 -1 -15 -10 -26 -13 -15 -14 -18 -3
-12 13 8 13 6 2 -8 -13 -16 -12 -90 1 -104 4 -3 2 -14 -4 -24 -7 -13 -6 -19 1
-19 6 0 8 -4 5 -10 -8 -14 22 -68 45 -80 11 -6 20 -20 20 -31 0 -11 7 -27 16
-36 8 -9 13 -22 10 -30 -3 -8 -1 -11 4 -8 6 3 10 -1 10 -10 0 -9 4 -14 9 -11
5 3 11 -3 14 -14 3 -11 12 -20 21 -20 9 0 16 -5 16 -11 0 -5 4 -7 10 -4 6 3
10 2 10 -4 0 -5 11 -8 25 -7 13 2 23 -2 22 -8 -1 -6 10 -10 26 -9 18 1 25 -2
21 -9 -5 -7 2 -9 20 -6 14 3 26 1 26 -3 0 -5 7 -6 15 -3 22 9 41 -17 40 -54 0
-18 2 -35 6 -38 4 -2 5 -13 2 -24 -3 -11 -1 -20 5 -20 5 0 9 -8 9 -17 0 -39 3
-54 11 -49 4 2 9 -7 10 -22 1 -15 7 -29 12 -30 6 -2 7 -8 4 -13 -3 -6 2 -20
13 -31 12 -15 13 -19 3 -13 -12 6 -13 5 -2 -6 6 -7 12 -24 12 -37 0 -15 4 -21
11 -16 8 5 10 -3 7 -26 -3 -22 0 -34 9 -37 12 -5 12 -7 1 -14 -10 -7 -10 -9 2
-9 9 0 16 -8 17 -17 3 -44 8 -63 15 -63 4 0 8 -5 8 -11 0 -5 -6 -7 -12 -4 -7
4 -4 -1 6 -9 14 -11 15 -16 6 -16 -11 0 -11 -3 -2 -12 7 -7 12 -20 12 -30 0
-10 4 -18 9 -18 5 0 12 -7 15 -16 4 -10 2 -13 -7 -9 -6 4 -3 -1 7 -9 14 -11
16 -16 6 -16 -9 0 -7 -5 7 -15 14 -10 20 -23 18 -45 -2 -21 2 -30 13 -30 8 0
13 -3 9 -6 -3 -4 0 -19 9 -35 8 -16 15 -32 17 -36 1 -5 6 -7 11 -5 5 2 4 -3
-3 -11 -9 -12 -9 -16 1 -20 7 -3 3 -4 -9 -4 -12 1 -20 4 -18 8 7 10 -79 -15
-87 -25 -4 -6 -13 -5 -22 3 -9 8 -16 9 -16 4 0 -5 -7 -10 -15 -10 -8 0 -15 5
-15 11 0 5 -7 1 -16 -10 -8 -10 -13 -13 -9 -6 4 7 0 12 -9 12 -9 0 -16 -3 -16
-7 0 -5 -15 -7 -32 -7 -18 1 -43 -4 -55 -12 -14 -9 -24 -10 -28 -4 -4 7 -14 6
-28 -2 -27 -14 -57 -18 -57 -6 0 4 -5 7 -12 6 -18 -4 -37 -22 -31 -30 2 -5 0
-8 -5 -8 -14 0 -10 -29 6 -35 8 -3 11 -12 8 -21 -3 -9 -2 -12 5 -9 5 4 17 1
25 -6 12 -9 13 -9 9 2 -4 10 1 15 15 15 11 0 20 -3 20 -6 0 -4 13 -5 30 -2 19
3 30 0 30 -7 0 -7 5 -9 10 -6 6 3 10 1 10 -4 0 -6 5 -11 11 -11 5 0 7 6 3 12
-6 10 -5 10 8 1 8 -7 18 -10 21 -6 4 3 7 1 7 -7 0 -10 4 -10 17 1 14 12 16 12
8 0 -6 -11 -3 -13 13 -9 13 4 22 1 22 -5 0 -8 4 -7 9 2 5 8 11 9 15 3 3 -6 15
-8 26 -5 11 3 20 0 20 -6 0 -6 14 -11 31 -11 16 0 28 -4 24 -9 -3 -6 6 -8 20
-5 14 2 25 0 25 -6 0 -6 5 -8 10 -5 6 3 10 -2 10 -12 0 -15 2 -16 10 -3 8 12
10 12 11 -5 0 -11 3 -15 5 -8 4 8 12 8 31 -2 15 -8 30 -12 35 -9 4 3 8 -1 8
-8 0 -9 3 -9 10 2 8 12 10 12 10 1 0 -10 3 -11 14 -2 11 9 16 9 22 0 5 -8 3
-9 -6 -4 -9 6 -11 4 -5 -4 5 -9 10 -10 18 -2 7 7 14 7 24 0 7 -7 13 -7 13 -2
0 12 53 11 62 -2 5 -6 8 -5 8 4 0 11 3 11 15 1 8 -7 15 -9 15 -4 0 10 103 10
119 0 5 -3 12 0 14 6 4 9 6 9 6 1 1 -8 10 -9 30 -3 21 6 31 5 35 -3 3 -9 5 -9
5 0 1 9 9 9 31 2 16 -6 27 -15 24 -21 -4 -5 4 -5 16 2 15 8 20 8 16 1 -4 -6
-3 -11 3 -11 5 0 13 5 16 10 4 6 12 7 18 3 19 -12 58 -13 51 -1 -4 7 -2 8 4 4
6 -4 32 -8 57 -11 33 -2 43 0 39 8 -5 9 -3 9 6 0 9 -9 19 -9 33 -2 12 7 17 7
13 1 -3 -5 1 -13 10 -16 10 -4 13 -2 8 6 -5 8 2 9 25 5 24 -5 30 -4 25 6 -6 9
-5 9 7 0 9 -7 20 -8 28 -3 8 4 21 6 29 2 11 -4 13 -2 7 9 -7 11 -6 12 6 3 16
-13 49 -15 49 -3 0 5 7 6 15 3 8 -4 15 -1 15 5 0 6 5 11 11 11 5 0 7 -5 3 -12
-5 -7 -3 -8 5 -4 7 5 10 10 7 13 -6 6 26 43 33 38 3 -2 6 10 6 26 0 16 -4 29
-9 29 -4 0 -6 6 -3 14 4 10 -1 12 -16 9 -18 -4 -19 -3 -7 6 13 10 13 11 0 12
-8 1 -18 1 -22 0 -5 0 -8 3 -8 9 0 5 -7 10 -16 10 -9 0 -23 8 -31 17 -10 12
-12 13 -8 3 4 -10 2 -10 -8 2 -9 12 -17 14 -24 7 -8 -8 -16 -4 -27 12 -10 15
-16 18 -16 9 0 -13 -2 -13 -10 0 -5 8 -10 11 -10 5 0 -5 -5 -2 -11 8 -5 9 -17
17 -24 17 -8 0 -15 5 -15 10 0 7 -6 7 -20 0 -15 -8 -20 -8 -20 1 0 6 -8 9 -19
6 -10 -2 -25 -1 -32 4 -8 4 -18 1 -26 -9 -12 -15 -12 -15 -6 3 6 18 5 18 -10
6 -14 -11 -17 -11 -17 0 0 12 -2 12 -9 0 -5 -7 -14 -10 -20 -7 -6 4 -8 12 -5
18 4 6 2 8 -3 5 -6 -4 -20 2 -32 12 -13 12 -32 17 -52 15 -20 -3 -28 0 -23 8
5 7 3 8 -7 2 -22 -13 -43 -14 -51 -1 -6 9 -8 9 -8 0 0 -6 -9 -11 -20 -10 -11
1 -20 8 -20 15 0 9 -6 12 -17 8 -14 -6 -14 -3 3 15 10 12 13 19 5 14 -11 -6
-13 -4 -8 8 8 20 -2 49 -13 42 -14 -8 19 52 35 65 8 6 26 13 41 15 14 1 30 9
35 16 7 12 9 11 9 -1 1 -12 3 -11 11 3 6 9 14 15 20 12 5 -4 12 1 15 9 3 9 10
14 14 11 5 -3 15 2 23 10 9 8 19 15 23 15 4 0 13 8 20 17 13 17 14 17 8 -2 -6
-18 -4 -17 10 3 10 12 22 20 27 17 5 -4 6 2 2 11 -5 13 -3 16 10 11 11 -4 14
-2 10 9 -3 10 2 14 18 14 17 0 20 3 11 9 -11 7 -10 9 3 15 9 3 13 11 9 17 -4
8 -3 9 4 5 7 -4 22 2 34 13 12 12 18 21 14 21 -4 0 -1 6 6 14 7 8 17 11 22 8
5 -3 6 3 2 14 -4 10 -4 15 0 11 9 -8 36 12 29 22 -5 9 26 8 42 -2 6 -4 14 -1
16 5 4 8 6 7 6 -4 1 -11 7 -15 21 -11 12 3 20 0 20 -7 0 -10 3 -10 14 -1 8 7
17 8 20 3 3 -5 26 -10 51 -10 33 -1 44 2 38 11 -4 7 0 7 10 -2 14 -11 20 -11
34 0 14 12 16 12 9 -1 -6 -12 -4 -11 6 1 7 9 19 14 26 12 6 -3 12 0 12 7 0 6
5 8 10 5 6 -3 10 -1 10 4 0 6 7 11 16 11 8 0 12 5 9 10 -3 6 1 13 9 16 9 3 16
13 16 22 0 8 3 13 6 9 4 -3 13 0 20 8 17 17 18 29 2 19 -7 -4 -6 1 3 12 26 32
41 74 26 74 -8 0 -7 4 3 10 9 6 10 10 3 10 -8 0 -11 11 -8 30 2 17 -1 30 -6
30 -11 0 -35 59 -31 74 2 5 -4 6 -13 2 -9 -3 -13 -2 -10 3 3 5 1 12 -5 16 -6
4 -8 11 -5 16 4 5 1 9 -5 9 -6 0 -8 5 -5 10 3 6 1 10 -5 10 -6 0 -18 7 -26 15
-9 8 -12 15 -8 15 4 0 -5 9 -20 21 -14 11 -24 25 -21 30 4 5 1 9 -5 9 -15 0
-41 26 -33 34 4 3 0 6 -9 6 -8 0 -23 10 -34 23 -19 22 -19 22 1 7 12 -8 10 -4
-5 9 -27 27 -28 30 -8 42 8 6 9 9 1 9 -6 0 -10 8 -8 18 2 9 4 17 5 17 1 0 3 8
5 18 2 9 -1 14 -7 11 -6 -4 -5 3 2 15 9 17 9 26 0 37 -10 11 -9 15 1 19 11 4
13 29 11 113 -3 132 -3 132 -14 132 -5 0 -6 5 -3 10 3 6 2 10 -4 10 -6 0 -7 7
-4 17 4 11 3 14 -5 9 -8 -4 -16 2 -21 16 -6 14 -10 17 -11 8 -1 -9 -5 -6 -10
8 -5 12 -17 22 -25 22 -9 0 -13 5 -10 10 4 6 -5 10 -20 10 -19 0 -26 4 -22 14
3 7 0 19 -6 26 -9 10 -9 11 1 6 6 -4 12 -2 12 3 0 6 -6 11 -12 11 -10 0 -10 2
-2 8 8 5 7 11 -4 22 -9 8 -18 14 -19 13 -2 -2 -4 -3 -5 -2 -17 5 -46 4 -42 -3
3 -4 -2 -11 -11 -14 -9 -4 -14 -12 -12 -18 6 -14 -41 -15 -62 -2 -11 7 -13 5
-7 -9 7 -18 6 -18 -14 0 -11 10 -20 15 -20 10 0 -4 -8 -1 -17 6 -15 12 -16 12
-10 -4 6 -15 4 -16 -13 -7 -16 9 -20 8 -20 -7 0 -14 -2 -15 -9 -4 -5 8 -11 9
-15 3 -9 -15 -48 -2 -42 14 3 8 2 13 -2 13 -19 -3 -33 2 -28 10 6 10 -19 23
-27 15z m-107 -1548 c0 -3 -4 -8 -10 -11 -5 -3 -10 -1 -10 4 0 6 5 11 10 11 6
0 10 -2 10 -4z"/>
</g>
</svg>
